<svg width="52" height="52" viewBox="0 0 52 52" fill="none" xmlns="http://www.w3.org/2000/svg">
<rect x="51.0602" y="1.0603" width="50" height="50" rx="5" transform="rotate(90.1382 51.0602 1.0603)" fill="#3685FB"/>
<path d="M18.4404 29.5473C18.7241 29.8262 19.1084 29.9833 19.5093 29.9842C19.9103 29.9852 20.2954 29.83 20.5804 29.5525L26.0421 24.2782L31.4023 29.5786C31.686 29.8575 32.0703 30.0145 32.4713 30.0155C32.8723 30.0165 33.2573 29.8612 33.5424 29.5837C33.685 29.4452 33.7983 29.2803 33.8758 29.0985C33.9533 28.9167 33.9934 28.7215 33.9939 28.5244C33.9944 28.3272 33.9552 28.1319 33.8786 27.9497C33.8019 27.7675 33.6894 27.602 33.5475 27.4628L27.1273 21.1143C26.9866 20.974 26.819 20.8624 26.6342 20.7862C26.4494 20.7099 26.2511 20.6704 26.0508 20.6699C25.8504 20.6694 25.6519 20.708 25.4668 20.7833C25.2816 20.8587 25.1135 20.9694 24.9721 21.1091L18.4455 27.4264C18.3029 27.5649 18.1896 27.7298 18.1121 27.9116C18.0346 28.0935 17.9944 28.2886 17.9939 28.4858C17.9935 28.6829 18.0327 28.8783 18.1093 29.0605C18.1859 29.2427 18.2984 29.4081 18.4404 29.5473Z" fill="#FCFCFC"/>
</svg>
